# xmcd CD database file generated by Grip 2.96
# 
# Track frame offsets:
#       150
#       11872
#       26757
#       40620
#       54577
#       68450
#       82977
#       98157
#       111192
#       123765
#       139200
#       153600
#       165875
#       178865
#       193842
#       206227
#       220355
#       233917
#       248700
#       263487
#       275847
#       286680
#       298485
#       310505
#       322920
# 
# Disc length: 4474 seconds
# 
# Revision: 0
# Processed by: cddbd v1.4b42PL1 Copyright (c) Steve Scherf et al.
# Submitted via: Grip 2.96
# 
DISCID=69117819
DTITLE=Various Artist - Blues Classics 1927-1969
DYEAR=1900
DGENRE=
TTITLE0=Furry Lewis - Billy Lyons and Stock O'Lee
TTITLE1=Jim Jackson - Jim Jackson's Kansas City Blues, Pt. 1
TTITLE2=Leroy Car - How Long-How Long Blues
TTITLE3=Cow Cow Davenport - Cow Cow Blues
TTITLE4=Tampa Red and Georgia Tom - It's Tight Like That
TTITLE5=Bertha "Chippie" Hill - Trouble In Mind
TTITLE6=Pine Top Smith - Pine Top's Boogie Woogie
TTITLE7=Robert Wilkins - That's No Way To Get Along
TTITLE8=Memphis Minnie and Kansas Joe McCoy - What's The Matter With The Mill
TTITLE9=Tampa Red and Georgia Tom - Things 'Bout Comin' My Way
TTITLE10=Kokomo Arnold - Milk Cow Blues
TTITLE11=Memphis Minnie - Dirty Mother For You
TTITLE12=Roosevelt Sykes - The Honey Dripper
TTITLE13=Oscar Woods - Lone Wolf Blues
TTITLE14=The Black Ace - The Black Ace
TTITLE15=Peetie Wheatstraw - Crazy With The Blues
TTITLE16=Blind Boy Fuller - If You See My Pigmeat
TTITLE17=Charlie Pickett - Down The Highway
TTITLE18=Sleepy John Estes - Floating Bridge
TTITLE19=Lonnie Johnson - Mr. Johnson Swing
TTITLE20=Peetie Wheatstraw and Lonnie Johnson - Truckin' Thru Traffic
TTITLE21=Georgia White - The Blues Ain't Nothin' But A Woman Cryin' For Her Man
TTITLE22=Sister Rosetta Tharpe - This Train
TTITLE23=Alberta Hunter - Fine And Mellow
TTITLE24=Robert Lee McCoy - Friar's Point Blues
EXTD=
EXTT0=
EXTT1=
EXTT2=
EXTT3=
EXTT4=
EXTT5=
EXTT6=
EXTT7=
EXTT8=
EXTT9=
EXTT10=
EXTT11=
EXTT12=
EXTT13=
EXTT14=
EXTT15=
EXTT16=
EXTT17=
EXTT18=
EXTT19=
EXTT20=
EXTT21=
EXTT22=
EXTT23=
EXTT24=
PLAYORDER=
